<svg xmlns="http://www.w3.org/2000/svg" xmlns:xlink="http://www.w3.org/1999/xlink" viewBox="0 0 1003 1132"><defs><style>.cls-1{fill:#c4c3d1;}.cls-2{fill:url(#Gradiente_sem_nome_60);}.cls-3{fill:#3d4a68;stroke:url(#Gradiente_sem_nome_60-2);}.cls-26,.cls-27,.cls-3,.cls-33,.cls-34,.cls-38,.cls-39,.cls-4,.cls-40,.cls-5,.cls-54,.cls-56,.cls-57,.cls-6,.cls-68,.cls-69,.cls-70,.cls-71{stroke-miterlimit:10;}.cls-3,.cls-68{stroke-width:8px;}.cls-4,.cls-68{fill:none;}.cls-4{stroke:#383838;}.cls-5{fill:#f12711;}.cls-5,.cls-6{stroke:#000;}.cls-6{fill:#f5af19;}.cls-7{font-size:13.94px;}.cls-13,.cls-20,.cls-49,.cls-55,.cls-59,.cls-7{font-family:Montserrat-BoldItalic, Montserrat;font-weight:700;}.cls-13,.cls-20,.cls-49,.cls-55,.cls-59,.cls-7,.cls-72{font-style:italic;}.cls-8{letter-spacing:0em;}.cls-9{letter-spacing:0em;}.cls-10{letter-spacing:-0.01em;}.cls-11{letter-spacing:-0.01em;}.cls-12{letter-spacing:0em;}.cls-13{font-size:12px;}.cls-14{letter-spacing:-0.04em;}.cls-15{letter-spacing:-0.02em;}.cls-16{letter-spacing:-0.01em;}.cls-17{letter-spacing:-0.04em;}.cls-18{letter-spacing:0em;}.cls-19{letter-spacing:-0.01em;}.cls-20{font-size:11.07px;}.cls-21{letter-spacing:-0.04em;}.cls-22{letter-spacing:-0.02em;}.cls-23{letter-spacing:0em;}.cls-24{letter-spacing:-0.01em;}.cls-25{letter-spacing:-0.01em;}.cls-26,.cls-27,.cls-33,.cls-34,.cls-38,.cls-39,.cls-40,.cls-54,.cls-56,.cls-57{stroke-width:3px;}.cls-26{stroke:url(#Gradiente_sem_nome_17);}.cls-27,.cls-34,.cls-54,.cls-57{fill:#c3c3c8;}.cls-27{stroke:url(#Gradiente_sem_nome_17-2);}.cls-28{font-size:15.64px;fill:#c1c1c1;}.cls-28,.cls-53{font-family:MyriadPro-Regular, Myriad Pro;}.cls-29{letter-spacing:-0.01em;}.cls-30{letter-spacing:-0.09em;}.cls-31{letter-spacing:-0.01em;}.cls-32{letter-spacing:-0.02em;}.cls-33{stroke:url(#Gradiente_sem_nome_17-3);}.cls-34{stroke:url(#Gradiente_sem_nome_17-4);}.cls-35{letter-spacing:0em;}.cls-36{letter-spacing:0em;}.cls-37{letter-spacing:0em;}.cls-38{stroke:url(#Gradiente_sem_nome_17-5);}.cls-39{stroke:url(#Gradiente_sem_nome_17-6);}.cls-40{fill:#777;stroke:url(#Gradiente_sem_nome_17-7);}.cls-41{letter-spacing:0em;}.cls-42{letter-spacing:-0.03em;}.cls-43{letter-spacing:-0.08em;}.cls-44{letter-spacing:0em;}.cls-45{letter-spacing:0em;}.cls-46{letter-spacing:0em;}.cls-47{letter-spacing:0.02em;}.cls-48{letter-spacing:0em;}.cls-49,.cls-59{font-size:17.53px;}.cls-49{fill:#2d2d2d;}.cls-50{letter-spacing:-0.02em;}.cls-51{letter-spacing:-0.01em;}.cls-52{fill:#383838;}.cls-53{font-size:28.52px;fill:#707070;}.cls-54{stroke:url(#Gradiente_sem_nome_17-8);}.cls-55{font-size:23.71px;}.cls-56{stroke:url(#Gradiente_sem_nome_17-9);}.cls-57{stroke:url(#Gradiente_sem_nome_17-10);}.cls-58{fill:url(#Gradiente_sem_nome_60-3);}.cls-60{letter-spacing:-0.01em;}.cls-61{letter-spacing:-0.01em;}.cls-62{letter-spacing:0em;}.cls-63{letter-spacing:-0.01em;}.cls-64{letter-spacing:-0.01em;}.cls-65{letter-spacing:-0.03em;}.cls-66{letter-spacing:-0.02em;}.cls-67{letter-spacing:0em;}.cls-68{stroke:#d0d2d8;opacity:0.5;}.cls-69,.cls-70,.cls-71{stroke:#39ef14;stroke-width:4px;}.cls-69{fill:url(#Gradiente_sem_nome_60-4);}.cls-70{fill:url(#Gradiente_sem_nome_60-5);}.cls-71{fill:url(#Gradiente_sem_nome_60-6);}.cls-72{font-size:28.5px;fill:#39ef14;font-family:Montserrat-BlackItalic, Montserrat;font-weight:800;}.cls-73{letter-spacing:-0.01em;}.cls-74{letter-spacing:-0.02em;}.cls-75{letter-spacing:0em;}</style><linearGradient id="Gradiente_sem_nome_60" y1="1058.5" x2="1003" y2="1058.5" gradientUnits="userSpaceOnUse"><stop offset="0" stop-color="#606c88"/><stop offset="0.99" stop-color="#3f4c6b"/></linearGradient><linearGradient id="Gradiente_sem_nome_60-2" x1="225" y1="565.31" x2="740.67" y2="565.31" xlink:href="#Gradiente_sem_nome_60"/><linearGradient id="Gradiente_sem_nome_17" x1="253.5" y1="1035.5" x2="404" y2="1035.5" gradientUnits="userSpaceOnUse"><stop offset="0" stop-color="#f12711"/><stop offset="0.99" stop-color="#f5af19"/></linearGradient><linearGradient id="Gradiente_sem_nome_17-2" y1="1065.75" y2="1065.75" xlink:href="#Gradiente_sem_nome_17"/><linearGradient id="Gradiente_sem_nome_17-3" x1="57.5" y1="1035.5" x2="208" y2="1035.5" xlink:href="#Gradiente_sem_nome_17"/><linearGradient id="Gradiente_sem_nome_17-4" x1="57.5" y1="1065.75" x2="208" y2="1065.75" xlink:href="#Gradiente_sem_nome_17"/><linearGradient id="Gradiente_sem_nome_17-5" x1="635.5" y1="1035.5" x2="786" y2="1035.5" xlink:href="#Gradiente_sem_nome_17"/><linearGradient id="Gradiente_sem_nome_17-6" x1="799" y1="1039" x2="972" y2="1039" xlink:href="#Gradiente_sem_nome_17"/><linearGradient id="Gradiente_sem_nome_17-7" x1="635.5" y1="1065.75" x2="786" y2="1065.75" xlink:href="#Gradiente_sem_nome_17"/><linearGradient id="Gradiente_sem_nome_17-8" x1="799" y1="1029" x2="835" y2="1029" xlink:href="#Gradiente_sem_nome_17"/><linearGradient id="Gradiente_sem_nome_17-9" x1="414" y1="1039" x2="587" y2="1039" xlink:href="#Gradiente_sem_nome_17"/><linearGradient id="Gradiente_sem_nome_17-10" x1="414" y1="1029" x2="450" y2="1029" xlink:href="#Gradiente_sem_nome_17"/><linearGradient id="Gradiente_sem_nome_60-3" x1="779" y1="844.5" x2="968" y2="844.5" xlink:href="#Gradiente_sem_nome_60"/><linearGradient id="Gradiente_sem_nome_60-4" x1="428.97" y1="570.76" x2="570.03" y2="570.76" xlink:href="#Gradiente_sem_nome_60"/><linearGradient id="Gradiente_sem_nome_60-5" x1="535.92" y1="516.51" x2="552.98" y2="516.51" xlink:href="#Gradiente_sem_nome_60"/><linearGradient id="Gradiente_sem_nome_60-6" x1="455.32" y1="631.22" x2="472.37" y2="631.22" xlink:href="#Gradiente_sem_nome_60"/></defs><title>MC2Ativo 2</title><g id="Camada_2" data-name="Camada 2"><g id="ALL"><rect class="cls-1" width="1003" height="1132"/><rect class="cls-2" y="985" width="1003" height="147"/><path class="cls-3" d="M650.63,470.78c45.73,7.75,86,45.36,86,98.43a96.14,96.14,0,0,1-79.22,94.63l.16,1.48L432.24,716.78l-20.65,4.72A157.74,157.74,0,1,1,386.72,408c4,0,8,.17,11.94.46h0l.06,0C419.12,410,429,414.2,460,420.4Z"/><line class="cls-4" x1="168.5" y1="567.5" x2="834.5" y2="567.5"/><line class="cls-4" x1="543.5" y1="901" x2="543.5" y2="235"/><rect class="cls-5" x="84.5" y="50.5" width="190" height="57" rx="12"/><rect class="cls-6" x="299.5" y="50.5" width="190" height="57" rx="12"/><rect class="cls-6" x="514.5" y="50.5" width="190" height="57" rx="12"/><rect class="cls-6" x="729.5" y="50.5" width="190" height="57" rx="12"/><text class="cls-7" transform="translate(116.26 83.34)">MOH<tspan class="cls-8" x="36.34" y="0">R</tspan><tspan class="cls-9" x="46.54" y="0">-</tspan><tspan class="cls-10" x="51.98" y="0">C</tspan><tspan x="61.99" y="0">OU</tspan><tspan class="cls-11" x="84.74" y="0">L</tspan><tspan class="cls-12" x="92.99" y="0">OMB</tspan></text><text class="cls-13" transform="translate(342.26 78.78)">M<tspan class="cls-14" x="11.46" y="0">Á</tspan><tspan class="cls-15" x="20.22" y="0">X</tspan><tspan x="28.52" y="0">IMA TENS</tspan><tspan class="cls-16" x="89.33" y="0">Ã</tspan><tspan x="98.4" y="0">O </tspan><tspan x="27.69" y="14.4">NORMAL</tspan></text><text class="cls-13" transform="translate(544.28 77.78)">M<tspan class="cls-17" x="11.46" y="0">Á</tspan><tspan class="cls-15" x="20.22" y="0">X</tspan><tspan class="cls-18" x="28.52" y="0">IMA TENS</tspan><tspan class="cls-19" x="89.33" y="0">Ã</tspan><tspan x="98.4" y="0">O DE</tspan><tspan x="13.77" y="14.4">CISALHAMEN</tspan><tspan class="cls-16" x="98.69" y="14.4">T</tspan><tspan x="105.99" y="14.4">O</tspan></text><text class="cls-20" transform="translate(762.45 78.04)">M<tspan class="cls-21" x="10.57" y="0">Á</tspan><tspan class="cls-22" x="18.65" y="0">X</tspan><tspan class="cls-23" x="26.31" y="0">IMA ENERGIA DE </tspan><tspan x="28.97" y="13.28">DI</tspan><tspan class="cls-24" x="41.75" y="13.28">ST</tspan><tspan x="55.43" y="13.28">OR</tspan><tspan class="cls-25" x="72.91" y="13.28">Ç</tspan><tspan class="cls-24" x="80.87" y="13.28">Ã</tspan><tspan x="89.24" y="13.28">O</tspan></text><rect class="cls-26" x="255" y="1007" width="147.5" height="57" rx="9"/><rect class="cls-27" x="255" y="1048" width="147.5" height="35.5" rx="7.83"/><text class="cls-28" transform="translate(264.3 1025.09)">TENS<tspan class="cls-29" x="33.48" y="0">Ã</tspan><tspan x="42.81" y="0">O Ú</tspan><tspan class="cls-30" x="67.03" y="0">L</tspan><tspan x="73.04" y="0">TI</tspan><tspan class="cls-31" x="84.55" y="0">M</tspan><tspan x="96.97" y="0">A DE</tspan><tspan class="cls-32" x="17.95" y="18.77">C</tspan><tspan x="26.69" y="18.77">OMPRESS</tspan><tspan class="cls-29" x="89.91" y="18.77">Ã</tspan><tspan x="99.25" y="18.77">O</tspan></text><rect class="cls-33" x="59" y="1007" width="147.5" height="57" rx="9"/><rect class="cls-34" x="59" y="1048" width="147.5" height="35.5" rx="7.83"/><text class="cls-28" transform="translate(68.3 1025.09)">TENS<tspan class="cls-29" x="33.48" y="0">Ã</tspan><tspan x="42.81" y="0">O Ú</tspan><tspan class="cls-30" x="67.03" y="0">L</tspan><tspan x="73.04" y="0">TI</tspan><tspan class="cls-31" x="84.55" y="0">M</tspan><tspan x="96.97" y="0">A DE</tspan><tspan x="36.52" y="18.77">T</tspan><tspan class="cls-35" x="44.29" y="18.77">R</tspan><tspan class="cls-29" x="52.79" y="18.77">A</tspan><tspan class="cls-36" x="62.13" y="18.77">Ç</tspan><tspan class="cls-29" x="71.34" y="18.77">Ã</tspan><tspan class="cls-37" x="80.68" y="18.77">O</tspan></text><rect class="cls-38" x="637" y="1007" width="147.5" height="57" rx="9"/><rect class="cls-39" x="800.5" y="1012.5" width="170" height="53" rx="9"/><rect class="cls-40" x="637" y="1048" width="147.5" height="35.5" rx="7.83"/><text class="cls-28" transform="translate(646.3 1025.09)">TENS<tspan class="cls-29" x="33.48" y="0">Ã</tspan><tspan x="42.81" y="0">O Ú</tspan><tspan class="cls-30" x="67.03" y="0">L</tspan><tspan x="73.04" y="0">TI</tspan><tspan class="cls-31" x="84.55" y="0">M</tspan><tspan x="96.97" y="0">A DE</tspan><tspan x="11.04" y="18.77">CISALH</tspan><tspan class="cls-41" x="58.72" y="18.77">A</tspan><tspan class="cls-37" x="68.23" y="18.77">MEN</tspan><tspan class="cls-42" x="98.8" y="18.77">T</tspan><tspan x="106.15" y="18.77">O</tspan></text><text class="cls-28" transform="translate(853.57 1032.09)"><tspan class="cls-43">P</tspan><tspan class="cls-44" x="7.01" y="0">A</tspan><tspan class="cls-45" x="16.58" y="0">R</tspan><tspan class="cls-46" x="25.08" y="0">Â</tspan><tspan class="cls-37" x="34.59" y="0">M</tspan><tspan class="cls-47" x="47.16" y="0">E</tspan><tspan x="55.11" y="0">T</tspan><tspan class="cls-48" x="62.88" y="0">R</tspan><tspan x="71.35" y="0">O </tspan><tspan x="-11.05" y="18.77">DES</tspan><tspan class="cls-32" x="14.77" y="18.77">C</tspan><tspan x="23.52" y="18.77">ONHECIDO</tspan></text><text class="cls-49" transform="translate(296.89 1071.69)"><tspan class="cls-50">7</tspan><tspan x="10.52" y="0">0 M</tspan><tspan class="cls-51" x="44.1" y="0">P</tspan><tspan x="56.74" y="0">a</tspan></text><text class="cls-49" transform="translate(96.89 1071.69)">40 M<tspan class="cls-51" x="45.66" y="0">P</tspan><tspan x="58.3" y="0">a</tspan></text><path class="cls-52" d="M829.5,553.5s9,15,0,28c10-8,33-15,33-15S834.5,558.5,829.5,553.5Z"/><path class="cls-52" d="M530,239s15-9,28,0c-8-10-15-33-15-33S535,234,530,239Z"/><text class="cls-53" transform="translate(844.39 604.87)">σ</text><text class="cls-53" transform="translate(500.4 234.87)">τ</text><rect class="cls-54" x="800.5" y="1012.5" width="33" height="33" rx="5.98"/><text class="cls-55" transform="translate(807.63 1037.69)">X</text><rect class="cls-56" x="415.5" y="1012.5" width="170" height="53" rx="9"/><text class="cls-28" transform="translate(468.57 1032.09)"><tspan class="cls-43">P</tspan><tspan class="cls-44" x="7.01" y="0">A</tspan><tspan class="cls-45" x="16.58" y="0">R</tspan><tspan class="cls-46" x="25.08" y="0">Â</tspan><tspan class="cls-37" x="34.59" y="0">M</tspan><tspan class="cls-47" x="47.16" y="0">E</tspan><tspan x="55.11" y="0">T</tspan><tspan class="cls-48" x="62.88" y="0">R</tspan><tspan x="71.35" y="0">O </tspan><tspan x="-11.05" y="18.77">DES</tspan><tspan class="cls-32" x="14.77" y="18.77">C</tspan><tspan x="23.52" y="18.77">ONHECIDO</tspan></text><rect class="cls-57" x="415.5" y="1012.5" width="33" height="33" rx="5.98"/><rect class="cls-5" x="84.5" y="192.5" width="199" height="33" rx="5.98"/><rect class="cls-6" x="84.5" y="243.5" width="199" height="33" rx="5.98"/><rect class="cls-58" x="779" y="771" width="189" height="147" rx="12"/><text class="cls-59" transform="translate(142.44 215.33)">CIR<tspan class="cls-60" x="31.48" y="0">C</tspan><tspan x="44.22" y="0">U</tspan><tspan class="cls-61" x="58.04" y="0">L</tspan><tspan x="68.41" y="0">O</tspan></text><text class="cls-59" transform="translate(109.44 265.33)">R<tspan class="cls-62" x="12.88" y="0">E</tspan><tspan x="24.61" y="0">GI</tspan><tspan class="cls-63" x="43.87" y="0">Ã</tspan><tspan x="57.13" y="0">O S</tspan><tspan class="cls-62" x="88.06" y="0">E</tspan><tspan x="99.79" y="0">GURA</tspan></text><text class="cls-59" transform="translate(101.67 174.67)">RE<tspan class="cls-64" x="24.65" y="0">P</tspan><tspan x="37.3" y="0">RESEN</tspan><tspan class="cls-65" x="99.05" y="0">T</tspan><tspan class="cls-63" x="109.27" y="0">A</tspan><tspan class="cls-66" x="122.53" y="0">Ç</tspan><tspan x="135.11" y="0">ÕE</tspan><tspan class="cls-67" x="161.67" y="0">S</tspan><tspan x="172.76" y="0">:</tspan></text><circle class="cls-68" cx="388.66" cy="567.66" r="157.34"/><circle class="cls-68" cx="641.33" cy="571.54" r="95.33"/><circle class="cls-69" cx="499.5" cy="570.76" r="70.53"/><circle class="cls-70" cx="544.45" cy="516.51" r="8.53"/><circle class="cls-71" cx="463.84" cy="631.22" r="8.53"/><text class="cls-72" transform="translate(817.34 851.87)">Segu<tspan class="cls-73" x="77.34" y="0">r</tspan><tspan x="90.19" y="0">o</tspan></text><text class="cls-49" transform="translate(132.89 542.69)"><tspan class="cls-63">-</tspan><tspan class="cls-74" x="6.59" y="0">7</tspan><tspan class="cls-75" x="17.11" y="0">0 M</tspan><tspan class="cls-51" x="50.69" y="0">P</tspan><tspan x="63.33" y="0">a</tspan></text><text class="cls-49" transform="translate(752.89 549.69)">40 M<tspan class="cls-51" x="45.66" y="0">P</tspan><tspan x="58.3" y="0">a</tspan></text></g></g></svg>