<svg xmlns="http://www.w3.org/2000/svg" xmlns:xlink="http://www.w3.org/1999/xlink" viewBox="0 0 1003 1132"><defs><style>.cls-1{fill:#c4c3d1;}.cls-2{fill:url(#Gradiente_sem_nome_60);}.cls-3,.cls-46{font-size:17.53px;}.cls-3{fill:#2d2d2d;}.cls-11,.cls-17,.cls-24,.cls-3,.cls-46{font-family:Montserrat-BoldItalic, Montserrat;font-weight:700;}.cls-11,.cls-17,.cls-24,.cls-3,.cls-44,.cls-46{font-style:italic;}.cls-4{letter-spacing:-0.01em;}.cls-5{letter-spacing:-0.02em;}.cls-6{letter-spacing:0em;}.cls-7{letter-spacing:-0.01em;}.cls-8{letter-spacing:-0.02em;}.cls-9{fill:#f5af19;}.cls-10,.cls-9{stroke:#000;}.cls-10,.cls-30,.cls-31,.cls-57,.cls-58,.cls-59,.cls-9{stroke-miterlimit:10;}.cls-10{fill:#f12711;}.cls-11{font-size:13.94px;}.cls-12{letter-spacing:0em;}.cls-13{letter-spacing:0em;}.cls-14{letter-spacing:-0.01em;}.cls-15{letter-spacing:-0.01em;}.cls-16{letter-spacing:0em;}.cls-17{font-size:12px;}.cls-18{letter-spacing:-0.04em;}.cls-19{letter-spacing:-0.02em;}.cls-20{letter-spacing:-0.01em;}.cls-21{letter-spacing:-0.04em;}.cls-22{letter-spacing:0em;}.cls-23{letter-spacing:-0.01em;}.cls-24{font-size:11.07px;}.cls-25{letter-spacing:-0.04em;}.cls-26{letter-spacing:-0.02em;}.cls-27{letter-spacing:0em;}.cls-28{letter-spacing:-0.01em;}.cls-29{letter-spacing:-0.01em;}.cls-30,.cls-31{stroke-width:3px;}.cls-30{stroke:url(#Gradiente_sem_nome_17);}.cls-31{fill:#c3c3c8;stroke:url(#Gradiente_sem_nome_17-2);}.cls-32{font-size:15.64px;fill:#c1c1c1;}.cls-32,.cls-42{font-family:MyriadPro-Regular, Myriad Pro;}.cls-33{letter-spacing:-0.01em;}.cls-34{letter-spacing:-0.09em;}.cls-35{letter-spacing:-0.01em;}.cls-36{letter-spacing:-0.02em;}.cls-37{letter-spacing:-0.01em;}.cls-38{letter-spacing:0em;}.cls-39{letter-spacing:0em;}.cls-40{letter-spacing:-0.03em;}.cls-41{fill:#383838;}.cls-42{font-size:28.52px;fill:#707070;}.cls-43{fill:url(#Gradiente_sem_nome_60-2);}.cls-44{font-size:28.5px;fill:#39ef14;font-family:Montserrat-BlackItalic, Montserrat;font-weight:800;}.cls-45{letter-spacing:-0.01em;}.cls-47{letter-spacing:0em;}.cls-48{letter-spacing:-0.01em;}.cls-49{letter-spacing:-0.03em;}.cls-50{letter-spacing:-0.02em;}.cls-51{letter-spacing:0em;}.cls-52{fill:url(#Gradiente_sem_nome_60-3);}.cls-53{letter-spacing:-0.01em;}.cls-54{letter-spacing:0.01em;}.cls-55{letter-spacing:0.02em;}.cls-56{letter-spacing:0em;}.cls-57,.cls-58{fill:none;}.cls-57{stroke:#383838;}.cls-58,.cls-59{stroke:#0af210;stroke-width:4px;}.cls-59{fill:url(#Gradiente_sem_nome_60-4);}</style><linearGradient id="Gradiente_sem_nome_60" y1="1058.5" x2="1003" y2="1058.5" gradientUnits="userSpaceOnUse"><stop offset="0" stop-color="#606c88"/><stop offset="0.99" stop-color="#3f4c6b"/></linearGradient><linearGradient id="Gradiente_sem_nome_17" x1="32.5" y1="1043.5" x2="183" y2="1043.5" gradientUnits="userSpaceOnUse"><stop offset="0" stop-color="#f12711"/><stop offset="0.99" stop-color="#f5af19"/></linearGradient><linearGradient id="Gradiente_sem_nome_17-2" y1="1073.75" y2="1073.75" xlink:href="#Gradiente_sem_nome_17"/><linearGradient id="Gradiente_sem_nome_60-2" x1="754" y1="852.5" x2="943" y2="852.5" xlink:href="#Gradiente_sem_nome_60"/><linearGradient id="Gradiente_sem_nome_60-3" x1="222.22" y1="580.87" x2="811.28" y2="580.87" gradientTransform="translate(562.09 -195.27) rotate(45)" xlink:href="#Gradiente_sem_nome_60"/><linearGradient id="Gradiente_sem_nome_60-4" x1="626" y1="676" x2="640" y2="676" xlink:href="#Gradiente_sem_nome_60"/></defs><title>MTN4Ativo 6</title><g id="Camada_2" data-name="Camada 2"><g id="ALL"><rect class="cls-1" width="1003" height="1132"/><rect class="cls-2" y="985" width="1003" height="147"/><text class="cls-3" transform="translate(186.89 550.69)"><tspan class="cls-4">-</tspan><tspan class="cls-5" x="6.59" y="0">7</tspan><tspan class="cls-6" x="17.11" y="0">0 M</tspan><tspan class="cls-7" x="50.69" y="0">P</tspan><tspan x="63.33" y="0">a</tspan></text><text class="cls-3" transform="translate(532.89 834.69)"><tspan class="cls-4">-</tspan><tspan class="cls-5" x="6.59" y="0">7</tspan><tspan class="cls-6" x="17.11" y="0">0 M</tspan><tspan class="cls-7" x="50.69" y="0">P</tspan><tspan x="63.33" y="0">a</tspan></text><text class="cls-3" transform="translate(793.89 538.69)"><tspan class="cls-8">7</tspan><tspan x="10.52" y="0">0 M</tspan><tspan class="cls-7" x="44.1" y="0">P</tspan><tspan x="56.74" y="0">a</tspan></text><rect class="cls-9" x="59.5" y="58.5" width="190" height="57" rx="12"/><rect class="cls-9" x="274.5" y="58.5" width="190" height="57" rx="12"/><rect class="cls-9" x="489.5" y="58.5" width="190" height="57" rx="12"/><rect class="cls-10" x="704.5" y="58.5" width="190" height="57" rx="12"/><text class="cls-11" transform="translate(91.26 91.34)">MOH<tspan class="cls-12" x="36.34" y="0">R</tspan><tspan class="cls-13" x="46.54" y="0">-</tspan><tspan class="cls-14" x="51.98" y="0">C</tspan><tspan x="61.99" y="0">OU</tspan><tspan class="cls-15" x="84.74" y="0">L</tspan><tspan class="cls-16" x="92.99" y="0">OMB</tspan></text><text class="cls-17" transform="translate(317.26 86.78)">M<tspan class="cls-18" x="11.46" y="0">Á</tspan><tspan class="cls-19" x="20.22" y="0">X</tspan><tspan x="28.52" y="0">IMA TENS</tspan><tspan class="cls-20" x="89.33" y="0">Ã</tspan><tspan x="98.4" y="0">O </tspan><tspan x="27.69" y="14.4">NORMAL</tspan></text><text class="cls-17" transform="translate(519.28 85.78)">M<tspan class="cls-21" x="11.46" y="0">Á</tspan><tspan class="cls-19" x="20.22" y="0">X</tspan><tspan class="cls-22" x="28.52" y="0">IMA TENS</tspan><tspan class="cls-23" x="89.33" y="0">Ã</tspan><tspan x="98.4" y="0">O DE</tspan><tspan x="13.77" y="14.4">CISALHAMEN</tspan><tspan class="cls-20" x="98.69" y="14.4">T</tspan><tspan x="105.99" y="14.4">O</tspan></text><text class="cls-24" transform="translate(737.45 86.04)">M<tspan class="cls-25" x="10.57" y="0">Á</tspan><tspan class="cls-26" x="18.65" y="0">X</tspan><tspan class="cls-27" x="26.31" y="0">IMA ENERGIA DE </tspan><tspan x="28.97" y="13.28">DI</tspan><tspan class="cls-28" x="41.75" y="13.28">ST</tspan><tspan x="55.43" y="13.28">OR</tspan><tspan class="cls-29" x="72.91" y="13.28">Ç</tspan><tspan class="cls-28" x="80.87" y="13.28">Ã</tspan><tspan x="89.24" y="13.28">O</tspan></text><rect class="cls-30" x="34" y="1015" width="147.5" height="57" rx="9"/><rect class="cls-31" x="34" y="1056" width="147.5" height="35.5" rx="7.83"/><text class="cls-32" transform="translate(43.3 1033.09)">TENS<tspan class="cls-33" x="33.48" y="0">Ã</tspan><tspan x="42.81" y="0">O Ú</tspan><tspan class="cls-34" x="67.03" y="0">L</tspan><tspan x="73.04" y="0">TI</tspan><tspan class="cls-35" x="84.55" y="0">M</tspan><tspan x="96.97" y="0">A DE</tspan><tspan x="17.53" y="18.77">ES</tspan><tspan class="cls-36" x="32.94" y="18.77">C</tspan><tspan class="cls-37" x="41.68" y="18.77">O</tspan><tspan class="cls-38" x="52.24" y="18.77">A</tspan><tspan class="cls-39" x="61.75" y="18.77">MEN</tspan><tspan class="cls-40" x="92.32" y="18.77">T</tspan><tspan x="99.67" y="18.77">O</tspan></text><text class="cls-3" transform="translate(71.89 1079.69)"><tspan class="cls-8">7</tspan><tspan x="10.52" y="0">0 M</tspan><tspan class="cls-7" x="44.1" y="0">P</tspan><tspan x="56.74" y="0">a</tspan></text><path class="cls-41" d="M804.5,561.5s9,15,0,28c10-8,33-15,33-15S809.5,566.5,804.5,561.5Z"/><path class="cls-41" d="M505,247s15-9,28,0c-8-10-15-33-15-33S510,242,505,247Z"/><text class="cls-42" transform="translate(800.52 605.87)">σa</text><text class="cls-42" transform="translate(534.27 246.87)">σb</text><rect class="cls-10" x="59.5" y="201.5" width="199" height="33" rx="5.98"/><rect class="cls-43" x="754" y="779" width="189" height="147" rx="12"/><text class="cls-44" transform="translate(794.34 866.87)">Segu<tspan class="cls-45" x="77.34" y="0">r</tspan><tspan x="90.19" y="0">o</tspan></text><text class="cls-46" transform="translate(84.44 223.33)">R<tspan class="cls-47" x="12.88" y="0">E</tspan><tspan x="24.61" y="0">GI</tspan><tspan class="cls-4" x="43.87" y="0">Ã</tspan><tspan x="57.13" y="0">O S</tspan><tspan class="cls-47" x="88.06" y="0">E</tspan><tspan x="99.79" y="0">GURA</tspan></text><text class="cls-46" transform="translate(76.67 182.67)">RE<tspan class="cls-48" x="24.65" y="0">P</tspan><tspan x="37.3" y="0">RESEN</tspan><tspan class="cls-49" x="99.05" y="0">T</tspan><tspan class="cls-4" x="109.27" y="0">A</tspan><tspan class="cls-50" x="122.53" y="0">Ç</tspan><tspan x="135.11" y="0">ÕE</tspan><tspan class="cls-51" x="161.67" y="0">S</tspan><tspan x="172.76" y="0">:</tspan></text><ellipse class="cls-52" cx="516.75" cy="580.87" rx="360.71" ry="208.16" transform="translate(-259.38 535.53) rotate(-45)"/><text class="cls-44" transform="translate(804.34 822.87)"><tspan class="cls-53">F</tspan><tspan class="cls-54" x="18.07" y="0">.</tspan><tspan class="cls-55" x="27.01" y="0">S</tspan><tspan x="46.31" y="0">. 1</tspan><tspan class="cls-54" x="75.43" y="0">.</tspan><tspan class="cls-56" x="84.38" y="0">2</tspan></text><line class="cls-57" x1="213.5" y1="575.5" x2="809.5" y2="575.5"/><line class="cls-57" x1="518.5" y1="889.5" x2="518.5" y2="243"/><ellipse class="cls-58" cx="517.88" cy="580.53" rx="259.26" ry="149.61" transform="translate(-258.82 536.23) rotate(-45)"/><circle class="cls-59" cx="633" cy="676" r="7"/></g></g></svg>