<svg xmlns="http://www.w3.org/2000/svg" xmlns:xlink="http://www.w3.org/1999/xlink" viewBox="0 0 1003 1132"><defs><style>.cls-1{fill:#c4c3d1;}.cls-2{fill:url(#Gradiente_sem_nome_60);}.cls-3,.cls-64{font-size:17.53px;}.cls-3{fill:#2d2d2d;}.cls-13,.cls-19,.cls-26,.cls-3,.cls-58,.cls-64{font-family:Montserrat-BoldItalic, Montserrat;font-weight:700;}.cls-13,.cls-19,.cls-26,.cls-3,.cls-58,.cls-62,.cls-64{font-style:italic;}.cls-4{letter-spacing:-0.01em;}.cls-5{letter-spacing:-0.02em;}.cls-6{letter-spacing:0em;}.cls-7{letter-spacing:-0.01em;}.cls-8{fill:url(#Gradiente_sem_nome_60-2);}.cls-9{stroke:#39ef14;stroke-width:4px;fill:url(#Gradiente_sem_nome_60-3);}.cls-10,.cls-11,.cls-12,.cls-32,.cls-33,.cls-39,.cls-40,.cls-44,.cls-45,.cls-46,.cls-57,.cls-59,.cls-60,.cls-9{stroke-miterlimit:10;}.cls-10{fill:none;stroke:#383838;}.cls-11{fill:#f5af19;}.cls-11,.cls-12{stroke:#000;}.cls-12{fill:#f12711;}.cls-13{font-size:13.94px;}.cls-14{letter-spacing:0em;}.cls-15{letter-spacing:0em;}.cls-16{letter-spacing:-0.01em;}.cls-17{letter-spacing:-0.01em;}.cls-18{letter-spacing:0em;}.cls-19{font-size:12px;}.cls-20{letter-spacing:-0.04em;}.cls-21{letter-spacing:-0.02em;}.cls-22{letter-spacing:-0.01em;}.cls-23{letter-spacing:-0.04em;}.cls-24{letter-spacing:0em;}.cls-25{letter-spacing:-0.01em;}.cls-26{font-size:11.07px;}.cls-27{letter-spacing:-0.04em;}.cls-28{letter-spacing:-0.02em;}.cls-29{letter-spacing:0em;}.cls-30{letter-spacing:-0.01em;}.cls-31{letter-spacing:-0.01em;}.cls-32,.cls-33,.cls-39,.cls-40,.cls-44,.cls-45,.cls-46,.cls-57,.cls-59,.cls-60{stroke-width:3px;}.cls-32{stroke:url(#Gradiente_sem_nome_17);}.cls-33,.cls-40,.cls-57,.cls-60{fill:#c3c3c8;}.cls-33{stroke:url(#Gradiente_sem_nome_17-2);}.cls-34{font-size:15.64px;fill:#c1c1c1;}.cls-34,.cls-72{font-family:MyriadPro-Regular, Myriad Pro;}.cls-35{letter-spacing:-0.01em;}.cls-36{letter-spacing:-0.09em;}.cls-37{letter-spacing:-0.01em;}.cls-38{letter-spacing:-0.02em;}.cls-39{stroke:url(#Gradiente_sem_nome_17-3);}.cls-40{stroke:url(#Gradiente_sem_nome_17-4);}.cls-41{letter-spacing:0em;}.cls-42{letter-spacing:0em;}.cls-43{letter-spacing:0em;}.cls-44{stroke:url(#Gradiente_sem_nome_17-5);}.cls-45{stroke:url(#Gradiente_sem_nome_17-6);}.cls-46{fill:#777;stroke:url(#Gradiente_sem_nome_17-7);}.cls-47{letter-spacing:0em;}.cls-48{letter-spacing:-0.03em;}.cls-49{letter-spacing:-0.08em;}.cls-50{letter-spacing:0em;}.cls-51{letter-spacing:0em;}.cls-52{letter-spacing:0em;}.cls-53{letter-spacing:0.02em;}.cls-54{letter-spacing:0em;}.cls-55{letter-spacing:-0.02em;}.cls-56{fill:#383838;}.cls-57{stroke:url(#Gradiente_sem_nome_17-8);}.cls-58{font-size:23.71px;}.cls-59{stroke:url(#Gradiente_sem_nome_17-9);}.cls-60{stroke:url(#Gradiente_sem_nome_17-10);}.cls-61{fill:url(#Gradiente_sem_nome_60-4);}.cls-62{font-size:28.5px;fill:#39ef14;font-family:Montserrat-BlackItalic, Montserrat;font-weight:800;}.cls-63{letter-spacing:-0.01em;}.cls-65{letter-spacing:-0.01em;}.cls-66{letter-spacing:-0.01em;}.cls-67{letter-spacing:0em;}.cls-68{letter-spacing:-0.01em;}.cls-69{letter-spacing:-0.03em;}.cls-70{letter-spacing:-0.02em;}.cls-71{letter-spacing:0em;}.cls-72{font-size:28.52px;fill:#707070;}</style><linearGradient id="Gradiente_sem_nome_60" y1="1058.5" x2="1003" y2="1058.5" gradientUnits="userSpaceOnUse"><stop offset="0" stop-color="#606c88"/><stop offset="0.99" stop-color="#3f4c6b"/></linearGradient><linearGradient id="Gradiente_sem_nome_60-2" x1="263" y1="611.5" x2="684" y2="611.5" xlink:href="#Gradiente_sem_nome_60"/><linearGradient id="Gradiente_sem_nome_60-3" x1="621" y1="766" x2="635" y2="766" xlink:href="#Gradiente_sem_nome_60"/><linearGradient id="Gradiente_sem_nome_17" x1="225.5" y1="1035.5" x2="376" y2="1035.5" gradientUnits="userSpaceOnUse"><stop offset="0" stop-color="#f12711"/><stop offset="0.99" stop-color="#f5af19"/></linearGradient><linearGradient id="Gradiente_sem_nome_17-2" x1="225.5" y1="1065.75" x2="376" y2="1065.75" xlink:href="#Gradiente_sem_nome_17"/><linearGradient id="Gradiente_sem_nome_17-3" x1="29.5" y1="1035.5" x2="180" y2="1035.5" xlink:href="#Gradiente_sem_nome_17"/><linearGradient id="Gradiente_sem_nome_17-4" x1="29.5" y1="1065.75" x2="180" y2="1065.75" xlink:href="#Gradiente_sem_nome_17"/><linearGradient id="Gradiente_sem_nome_17-5" x1="607.5" y1="1035.5" x2="758" y2="1035.5" xlink:href="#Gradiente_sem_nome_17"/><linearGradient id="Gradiente_sem_nome_17-6" x1="771" y1="1039" x2="944" y2="1039" xlink:href="#Gradiente_sem_nome_17"/><linearGradient id="Gradiente_sem_nome_17-7" x1="607.5" y1="1065.75" x2="758" y2="1065.75" xlink:href="#Gradiente_sem_nome_17"/><linearGradient id="Gradiente_sem_nome_17-8" x1="771" y1="1029" x2="807" y2="1029" xlink:href="#Gradiente_sem_nome_17"/><linearGradient id="Gradiente_sem_nome_17-9" x1="386" y1="1039" x2="559" y2="1039" xlink:href="#Gradiente_sem_nome_17"/><linearGradient id="Gradiente_sem_nome_17-10" x1="386" y1="1029" x2="422" y2="1029" xlink:href="#Gradiente_sem_nome_17"/><linearGradient id="Gradiente_sem_nome_60-4" x1="751" y1="844.5" x2="940" y2="844.5" xlink:href="#Gradiente_sem_nome_60"/></defs><title>MTN1Ativo 3</title><g id="Camada_2" data-name="Camada 2"><g id="ALL"><rect class="cls-1" width="1003" height="1132"/><rect class="cls-2" y="985" width="1003" height="147"/><text class="cls-3" transform="translate(183.89 542.69)"><tspan class="cls-4">-</tspan><tspan class="cls-5" x="6.59" y="0">7</tspan><tspan class="cls-6" x="17.11" y="0">0 M</tspan><tspan class="cls-7" x="50.69" y="0">P</tspan><tspan x="63.33" y="0">a</tspan></text><text class="cls-3" transform="translate(529.89 844.69)"><tspan class="cls-4">-</tspan><tspan class="cls-5" x="6.59" y="0">7</tspan><tspan class="cls-6" x="17.11" y="0">0 M</tspan><tspan class="cls-7" x="50.69" y="0">P</tspan><tspan x="63.33" y="0">a</tspan></text><text class="cls-3" transform="translate(701.89 549.69)">40 M<tspan class="cls-7" x="45.66" y="0">P</tspan><tspan x="58.3" y="0">a</tspan></text><text class="cls-3" transform="translate(521.89 378.69)">40 M<tspan class="cls-7" x="45.66" y="0">P</tspan><tspan x="58.3" y="0">a</tspan></text><polygon class="cls-8" points="684 822 263 822 263 401 517 401 684 401 684 568 684 822"/><circle class="cls-9" cx="628" cy="766" r="7"/><line class="cls-10" x1="140.5" y1="567.5" x2="806.5" y2="567.5"/><line class="cls-10" x1="515.5" y1="901" x2="515.5" y2="235"/><rect class="cls-11" x="56.5" y="50.5" width="190" height="57" rx="12"/><rect class="cls-12" x="271.5" y="50.5" width="190" height="57" rx="12"/><rect class="cls-11" x="486.5" y="50.5" width="190" height="57" rx="12"/><rect class="cls-11" x="701.5" y="50.5" width="190" height="57" rx="12"/><text class="cls-13" transform="translate(88.26 83.34)">MOH<tspan class="cls-14" x="36.34" y="0">R</tspan><tspan class="cls-15" x="46.54" y="0">-</tspan><tspan class="cls-16" x="51.98" y="0">C</tspan><tspan x="61.99" y="0">OU</tspan><tspan class="cls-17" x="84.74" y="0">L</tspan><tspan class="cls-18" x="92.99" y="0">OMB</tspan></text><text class="cls-19" transform="translate(314.26 78.78)">M<tspan class="cls-20" x="11.46" y="0">Á</tspan><tspan class="cls-21" x="20.22" y="0">X</tspan><tspan x="28.52" y="0">IMA TENS</tspan><tspan class="cls-22" x="89.33" y="0">Ã</tspan><tspan x="98.4" y="0">O </tspan><tspan x="27.69" y="14.4">NORMAL</tspan></text><text class="cls-19" transform="translate(516.28 77.78)">M<tspan class="cls-23" x="11.46" y="0">Á</tspan><tspan class="cls-21" x="20.22" y="0">X</tspan><tspan class="cls-24" x="28.52" y="0">IMA TENS</tspan><tspan class="cls-25" x="89.33" y="0">Ã</tspan><tspan x="98.4" y="0">O DE</tspan><tspan x="13.77" y="14.4">CISALHAMEN</tspan><tspan class="cls-22" x="98.69" y="14.4">T</tspan><tspan x="105.99" y="14.4">O</tspan></text><text class="cls-26" transform="translate(734.45 78.04)">M<tspan class="cls-27" x="10.57" y="0">Á</tspan><tspan class="cls-28" x="18.65" y="0">X</tspan><tspan class="cls-29" x="26.31" y="0">IMA ENERGIA DE </tspan><tspan x="28.97" y="13.28">DI</tspan><tspan class="cls-30" x="41.75" y="13.28">ST</tspan><tspan x="55.43" y="13.28">OR</tspan><tspan class="cls-31" x="72.91" y="13.28">Ç</tspan><tspan class="cls-30" x="80.87" y="13.28">Ã</tspan><tspan x="89.24" y="13.28">O</tspan></text><rect class="cls-32" x="227" y="1007" width="147.5" height="57" rx="9"/><rect class="cls-33" x="227" y="1048" width="147.5" height="35.5" rx="7.83"/><text class="cls-34" transform="translate(236.3 1025.09)">TENS<tspan class="cls-35" x="33.48" y="0">Ã</tspan><tspan x="42.81" y="0">O Ú</tspan><tspan class="cls-36" x="67.03" y="0">L</tspan><tspan x="73.04" y="0">TI</tspan><tspan class="cls-37" x="84.55" y="0">M</tspan><tspan x="96.97" y="0">A DE</tspan><tspan class="cls-38" x="17.95" y="18.77">C</tspan><tspan x="26.69" y="18.77">OMPRESS</tspan><tspan class="cls-35" x="89.91" y="18.77">Ã</tspan><tspan x="99.25" y="18.77">O</tspan></text><rect class="cls-39" x="31" y="1007" width="147.5" height="57" rx="9"/><rect class="cls-40" x="31" y="1048" width="147.5" height="35.5" rx="7.83"/><text class="cls-34" transform="translate(40.3 1025.09)">TENS<tspan class="cls-35" x="33.48" y="0">Ã</tspan><tspan x="42.81" y="0">O Ú</tspan><tspan class="cls-36" x="67.03" y="0">L</tspan><tspan x="73.04" y="0">TI</tspan><tspan class="cls-37" x="84.55" y="0">M</tspan><tspan x="96.97" y="0">A DE</tspan><tspan x="36.52" y="18.77">T</tspan><tspan class="cls-41" x="44.29" y="18.77">R</tspan><tspan class="cls-35" x="52.79" y="18.77">A</tspan><tspan class="cls-42" x="62.13" y="18.77">Ç</tspan><tspan class="cls-35" x="71.34" y="18.77">Ã</tspan><tspan class="cls-43" x="80.68" y="18.77">O</tspan></text><rect class="cls-44" x="609" y="1007" width="147.5" height="57" rx="9"/><rect class="cls-45" x="772.5" y="1012.5" width="170" height="53" rx="9"/><rect class="cls-46" x="609" y="1048" width="147.5" height="35.5" rx="7.83"/><text class="cls-34" transform="translate(618.3 1025.09)">TENS<tspan class="cls-35" x="33.48" y="0">Ã</tspan><tspan x="42.81" y="0">O Ú</tspan><tspan class="cls-36" x="67.03" y="0">L</tspan><tspan x="73.04" y="0">TI</tspan><tspan class="cls-37" x="84.55" y="0">M</tspan><tspan x="96.97" y="0">A DE</tspan><tspan x="11.04" y="18.77">CISALH</tspan><tspan class="cls-47" x="58.72" y="18.77">A</tspan><tspan class="cls-43" x="68.23" y="18.77">MEN</tspan><tspan class="cls-48" x="98.8" y="18.77">T</tspan><tspan x="106.15" y="18.77">O</tspan></text><text class="cls-34" transform="translate(825.57 1032.09)"><tspan class="cls-49">P</tspan><tspan class="cls-50" x="7.01" y="0">A</tspan><tspan class="cls-51" x="16.58" y="0">R</tspan><tspan class="cls-52" x="25.08" y="0">Â</tspan><tspan class="cls-43" x="34.59" y="0">M</tspan><tspan class="cls-53" x="47.16" y="0">E</tspan><tspan x="55.11" y="0">T</tspan><tspan class="cls-54" x="62.88" y="0">R</tspan><tspan x="71.35" y="0">O </tspan><tspan x="-11.05" y="18.77">DES</tspan><tspan class="cls-38" x="14.77" y="18.77">C</tspan><tspan x="23.52" y="18.77">ONHECIDO</tspan></text><text class="cls-3" transform="translate(268.89 1071.69)"><tspan class="cls-55">7</tspan><tspan x="10.52" y="0">0 M</tspan><tspan class="cls-7" x="44.1" y="0">P</tspan><tspan x="56.74" y="0">a</tspan></text><text class="cls-3" transform="translate(68.89 1071.69)">40 M<tspan class="cls-7" x="45.66" y="0">P</tspan><tspan x="58.3" y="0">a</tspan></text><path class="cls-56" d="M801.5,553.5s9,15,0,28c10-8,33-15,33-15S806.5,558.5,801.5,553.5Z"/><path class="cls-56" d="M502,239s15-9,28,0c-8-10-15-33-15-33S507,234,502,239Z"/><rect class="cls-57" x="772.5" y="1012.5" width="33" height="33" rx="5.98"/><text class="cls-58" transform="translate(779.63 1037.69)">X</text><rect class="cls-59" x="387.5" y="1012.5" width="170" height="53" rx="9"/><text class="cls-34" transform="translate(440.57 1032.09)"><tspan class="cls-49">P</tspan><tspan class="cls-50" x="7.01" y="0">A</tspan><tspan class="cls-51" x="16.58" y="0">R</tspan><tspan class="cls-52" x="25.08" y="0">Â</tspan><tspan class="cls-43" x="34.59" y="0">M</tspan><tspan class="cls-53" x="47.16" y="0">E</tspan><tspan x="55.11" y="0">T</tspan><tspan class="cls-54" x="62.88" y="0">R</tspan><tspan x="71.35" y="0">O </tspan><tspan x="-11.05" y="18.77">DES</tspan><tspan class="cls-38" x="14.77" y="18.77">C</tspan><tspan x="23.52" y="18.77">ONHECIDO</tspan></text><rect class="cls-60" x="387.5" y="1012.5" width="33" height="33" rx="5.98"/><rect class="cls-11" x="56.5" y="192.5" width="199" height="33" rx="5.98"/><rect class="cls-12" x="56.5" y="243.5" width="199" height="33" rx="5.98"/><rect class="cls-61" x="751" y="771" width="189" height="147" rx="12"/><text class="cls-62" transform="translate(793.34 853.87)">Segu<tspan class="cls-63" x="77.34" y="0">r</tspan><tspan x="90.19" y="0">o</tspan></text><text class="cls-64" transform="translate(114.44 215.33)">CIR<tspan class="cls-65" x="31.48" y="0">C</tspan><tspan x="44.22" y="0">U</tspan><tspan class="cls-66" x="58.04" y="0">L</tspan><tspan x="68.41" y="0">O</tspan></text><text class="cls-64" transform="translate(81.44 265.33)">R<tspan class="cls-67" x="12.88" y="0">E</tspan><tspan x="24.61" y="0">GI</tspan><tspan class="cls-4" x="43.87" y="0">Ã</tspan><tspan x="57.13" y="0">O S</tspan><tspan class="cls-67" x="88.06" y="0">E</tspan><tspan x="99.79" y="0">GURA</tspan></text><text class="cls-64" transform="translate(73.67 174.67)">RE<tspan class="cls-68" x="24.65" y="0">P</tspan><tspan x="37.3" y="0">RESEN</tspan><tspan class="cls-69" x="99.05" y="0">T</tspan><tspan class="cls-4" x="109.27" y="0">A</tspan><tspan class="cls-70" x="122.53" y="0">Ç</tspan><tspan x="135.11" y="0">ÕE</tspan><tspan class="cls-71" x="161.67" y="0">S</tspan><tspan x="172.76" y="0">:</tspan></text><text class="cls-72" transform="translate(809.52 597.87)">σa</text><text class="cls-72" transform="translate(543.27 238.87)">σb</text></g></g></svg>