<svg xmlns="http://www.w3.org/2000/svg" xmlns:xlink="http://www.w3.org/1999/xlink" viewBox="0 0 1003 1132"><defs><style>.cls-1{fill:#c4c3d1;}.cls-2{fill:url(#Gradiente_sem_nome_60);}.cls-3{fill:#f5af19;}.cls-3,.cls-4{stroke:#000;}.cls-24,.cls-25,.cls-3,.cls-31,.cls-32,.cls-36,.cls-37,.cls-38,.cls-4,.cls-52,.cls-54,.cls-55,.cls-66,.cls-67,.cls-68,.cls-69,.cls-70,.cls-71{stroke-miterlimit:10;}.cls-4{fill:#f12711;}.cls-5{font-size:13.94px;}.cls-11,.cls-18,.cls-47,.cls-5,.cls-53,.cls-57{font-family:Montserrat-BoldItalic, Montserrat;font-weight:700;}.cls-11,.cls-18,.cls-47,.cls-5,.cls-53,.cls-57,.cls-72{font-style:italic;}.cls-6{letter-spacing:0em;}.cls-7{letter-spacing:0em;}.cls-8{letter-spacing:-0.01em;}.cls-9{letter-spacing:-0.01em;}.cls-10{letter-spacing:0em;}.cls-11{font-size:12px;}.cls-12{letter-spacing:-0.04em;}.cls-13{letter-spacing:-0.02em;}.cls-14{letter-spacing:-0.01em;}.cls-15{letter-spacing:-0.04em;}.cls-16{letter-spacing:0em;}.cls-17{letter-spacing:-0.01em;}.cls-18{font-size:11.07px;}.cls-19{letter-spacing:-0.04em;}.cls-20{letter-spacing:-0.02em;}.cls-21{letter-spacing:0em;}.cls-22{letter-spacing:-0.01em;}.cls-23{letter-spacing:-0.01em;}.cls-24,.cls-25,.cls-31,.cls-32,.cls-36,.cls-37,.cls-38,.cls-52,.cls-54,.cls-55{stroke-width:3px;}.cls-24{stroke:url(#Gradiente_sem_nome_17);}.cls-25,.cls-32,.cls-52,.cls-55{fill:#c3c3c8;}.cls-25{stroke:url(#Gradiente_sem_nome_17-2);}.cls-26{font-size:15.64px;fill:#c1c1c1;}.cls-26,.cls-51{font-family:MyriadPro-Regular, Myriad Pro;}.cls-27{letter-spacing:-0.01em;}.cls-28{letter-spacing:-0.09em;}.cls-29{letter-spacing:-0.01em;}.cls-30{letter-spacing:-0.02em;}.cls-31{stroke:url(#Gradiente_sem_nome_17-3);}.cls-32{stroke:url(#Gradiente_sem_nome_17-4);}.cls-33{letter-spacing:0em;}.cls-34{letter-spacing:0em;}.cls-35{letter-spacing:0em;}.cls-36{stroke:url(#Gradiente_sem_nome_17-5);}.cls-37{stroke:url(#Gradiente_sem_nome_17-6);}.cls-38{fill:#777;stroke:url(#Gradiente_sem_nome_17-7);}.cls-39{letter-spacing:0em;}.cls-40{letter-spacing:-0.03em;}.cls-41{letter-spacing:-0.08em;}.cls-42{letter-spacing:0em;}.cls-43{letter-spacing:0em;}.cls-44{letter-spacing:0em;}.cls-45{letter-spacing:0.02em;}.cls-46{letter-spacing:0em;}.cls-47,.cls-57{font-size:17.53px;}.cls-47{fill:#2d2d2d;}.cls-48{letter-spacing:-0.02em;}.cls-49{letter-spacing:-0.01em;}.cls-50{fill:#383838;}.cls-51{font-size:28.52px;fill:#707070;}.cls-52{stroke:url(#Gradiente_sem_nome_17-8);}.cls-53{font-size:23.71px;}.cls-54{stroke:url(#Gradiente_sem_nome_17-9);}.cls-55{stroke:url(#Gradiente_sem_nome_17-10);}.cls-56{fill:url(#Gradiente_sem_nome_60-2);}.cls-58{letter-spacing:-0.01em;}.cls-59{letter-spacing:-0.01em;}.cls-60{letter-spacing:0em;}.cls-61{letter-spacing:-0.01em;}.cls-62{letter-spacing:-0.01em;}.cls-63{letter-spacing:-0.03em;}.cls-64{letter-spacing:-0.02em;}.cls-65{letter-spacing:0em;}.cls-66{fill:#3d4a68;stroke:url(#Gradiente_sem_nome_60-3);}.cls-66,.cls-67{stroke-width:8px;}.cls-67,.cls-68,.cls-71{fill:none;}.cls-67{stroke:#d0d2d8;opacity:0.5;}.cls-68,.cls-69,.cls-70{stroke:#f40808;stroke-width:4px;}.cls-69{fill:url(#Gradiente_sem_nome_60-4);}.cls-70{fill:url(#Gradiente_sem_nome_60-5);}.cls-71{stroke:#383838;}.cls-72{font-size:28.5px;fill:#ffc0c0;font-family:Montserrat-BlackItalic, Montserrat;font-weight:800;}.cls-73{letter-spacing:-0.01em;}.cls-74{letter-spacing:0.01em;}.cls-75{letter-spacing:-0.02em;}.cls-76{letter-spacing:0em;}</style><linearGradient id="Gradiente_sem_nome_60" y1="1058.5" x2="1003" y2="1058.5" gradientUnits="userSpaceOnUse"><stop offset="0" stop-color="#606c88"/><stop offset="0.99" stop-color="#3f4c6b"/></linearGradient><linearGradient id="Gradiente_sem_nome_17" x1="247.5" y1="1038.5" x2="398" y2="1038.5" gradientUnits="userSpaceOnUse"><stop offset="0" stop-color="#f12711"/><stop offset="0.99" stop-color="#f5af19"/></linearGradient><linearGradient id="Gradiente_sem_nome_17-2" y1="1068.75" y2="1068.75" xlink:href="#Gradiente_sem_nome_17"/><linearGradient id="Gradiente_sem_nome_17-3" x1="51.5" y1="1038.5" x2="202" y2="1038.5" xlink:href="#Gradiente_sem_nome_17"/><linearGradient id="Gradiente_sem_nome_17-4" x1="51.5" y1="1068.75" x2="202" y2="1068.75" xlink:href="#Gradiente_sem_nome_17"/><linearGradient id="Gradiente_sem_nome_17-5" x1="629.5" y1="1038.5" x2="780" y2="1038.5" xlink:href="#Gradiente_sem_nome_17"/><linearGradient id="Gradiente_sem_nome_17-6" x1="793" y1="1042" x2="966" y2="1042" xlink:href="#Gradiente_sem_nome_17"/><linearGradient id="Gradiente_sem_nome_17-7" x1="629.5" y1="1068.75" x2="780" y2="1068.75" xlink:href="#Gradiente_sem_nome_17"/><linearGradient id="Gradiente_sem_nome_17-8" x1="793" y1="1032" x2="829" y2="1032" xlink:href="#Gradiente_sem_nome_17"/><linearGradient id="Gradiente_sem_nome_17-9" x1="408" y1="1042" x2="581" y2="1042" xlink:href="#Gradiente_sem_nome_17"/><linearGradient id="Gradiente_sem_nome_17-10" x1="408" y1="1032" x2="444" y2="1032" xlink:href="#Gradiente_sem_nome_17"/><linearGradient id="Gradiente_sem_nome_60-2" x1="773" y1="847.5" x2="962" y2="847.5" xlink:href="#Gradiente_sem_nome_60"/><linearGradient id="Gradiente_sem_nome_60-3" x1="221.33" y1="571.66" x2="735" y2="571.66" xlink:href="#Gradiente_sem_nome_60"/><linearGradient id="Gradiente_sem_nome_60-4" x1="747.92" y1="487.51" x2="764.98" y2="487.51" xlink:href="#Gradiente_sem_nome_60"/><linearGradient id="Gradiente_sem_nome_60-5" x1="429.32" y1="645.22" x2="446.37" y2="645.22" xlink:href="#Gradiente_sem_nome_60"/></defs><title>MTN2Ativo 4</title><g id="Camada_2" data-name="Camada 2"><g id="ALL"><rect class="cls-1" width="1003" height="1132"/><rect class="cls-2" y="985" width="1003" height="147"/><rect class="cls-3" x="78.5" y="53.5" width="190" height="57" rx="12"/><rect class="cls-4" x="293.5" y="53.5" width="190" height="57" rx="12"/><rect class="cls-3" x="508.5" y="53.5" width="190" height="57" rx="12"/><rect class="cls-3" x="723.5" y="53.5" width="190" height="57" rx="12"/><text class="cls-5" transform="translate(110.26 86.34)">MOH<tspan class="cls-6" x="36.34" y="0">R</tspan><tspan class="cls-7" x="46.54" y="0">-</tspan><tspan class="cls-8" x="51.98" y="0">C</tspan><tspan x="61.99" y="0">OU</tspan><tspan class="cls-9" x="84.74" y="0">L</tspan><tspan class="cls-10" x="92.99" y="0">OMB</tspan></text><text class="cls-11" transform="translate(336.26 81.78)">M<tspan class="cls-12" x="11.46" y="0">Á</tspan><tspan class="cls-13" x="20.22" y="0">X</tspan><tspan x="28.52" y="0">IMA TENS</tspan><tspan class="cls-14" x="89.33" y="0">Ã</tspan><tspan x="98.4" y="0">O </tspan><tspan x="27.69" y="14.4">NORMAL</tspan></text><text class="cls-11" transform="translate(538.28 80.78)">M<tspan class="cls-15" x="11.46" y="0">Á</tspan><tspan class="cls-13" x="20.22" y="0">X</tspan><tspan class="cls-16" x="28.52" y="0">IMA TENS</tspan><tspan class="cls-17" x="89.33" y="0">Ã</tspan><tspan x="98.4" y="0">O DE</tspan><tspan x="13.77" y="14.4">CISALHAMEN</tspan><tspan class="cls-14" x="98.69" y="14.4">T</tspan><tspan x="105.99" y="14.4">O</tspan></text><text class="cls-18" transform="translate(756.45 81.04)">M<tspan class="cls-19" x="10.57" y="0">Á</tspan><tspan class="cls-20" x="18.65" y="0">X</tspan><tspan class="cls-21" x="26.31" y="0">IMA ENERGIA DE </tspan><tspan x="28.97" y="13.28">DI</tspan><tspan class="cls-22" x="41.75" y="13.28">ST</tspan><tspan x="55.43" y="13.28">OR</tspan><tspan class="cls-23" x="72.91" y="13.28">Ç</tspan><tspan class="cls-22" x="80.87" y="13.28">Ã</tspan><tspan x="89.24" y="13.28">O</tspan></text><rect class="cls-24" x="249" y="1010" width="147.5" height="57" rx="9"/><rect class="cls-25" x="249" y="1051" width="147.5" height="35.5" rx="7.83"/><text class="cls-26" transform="translate(258.3 1028.09)">TENS<tspan class="cls-27" x="33.48" y="0">Ã</tspan><tspan x="42.81" y="0">O Ú</tspan><tspan class="cls-28" x="67.03" y="0">L</tspan><tspan x="73.04" y="0">TI</tspan><tspan class="cls-29" x="84.55" y="0">M</tspan><tspan x="96.97" y="0">A DE</tspan><tspan class="cls-30" x="17.95" y="18.77">C</tspan><tspan x="26.69" y="18.77">OMPRESS</tspan><tspan class="cls-27" x="89.91" y="18.77">Ã</tspan><tspan x="99.25" y="18.77">O</tspan></text><rect class="cls-31" x="53" y="1010" width="147.5" height="57" rx="9"/><rect class="cls-32" x="53" y="1051" width="147.5" height="35.5" rx="7.83"/><text class="cls-26" transform="translate(62.3 1028.09)">TENS<tspan class="cls-27" x="33.48" y="0">Ã</tspan><tspan x="42.81" y="0">O Ú</tspan><tspan class="cls-28" x="67.03" y="0">L</tspan><tspan x="73.04" y="0">TI</tspan><tspan class="cls-29" x="84.55" y="0">M</tspan><tspan x="96.97" y="0">A DE</tspan><tspan x="36.52" y="18.77">T</tspan><tspan class="cls-33" x="44.29" y="18.77">R</tspan><tspan class="cls-27" x="52.79" y="18.77">A</tspan><tspan class="cls-34" x="62.13" y="18.77">Ç</tspan><tspan class="cls-27" x="71.34" y="18.77">Ã</tspan><tspan class="cls-35" x="80.68" y="18.77">O</tspan></text><rect class="cls-36" x="631" y="1010" width="147.5" height="57" rx="9"/><rect class="cls-37" x="794.5" y="1015.5" width="170" height="53" rx="9"/><rect class="cls-38" x="631" y="1051" width="147.5" height="35.5" rx="7.83"/><text class="cls-26" transform="translate(640.3 1028.09)">TENS<tspan class="cls-27" x="33.48" y="0">Ã</tspan><tspan x="42.81" y="0">O Ú</tspan><tspan class="cls-28" x="67.03" y="0">L</tspan><tspan x="73.04" y="0">TI</tspan><tspan class="cls-29" x="84.55" y="0">M</tspan><tspan x="96.97" y="0">A DE</tspan><tspan x="11.04" y="18.77">CISALH</tspan><tspan class="cls-39" x="58.72" y="18.77">A</tspan><tspan class="cls-35" x="68.23" y="18.77">MEN</tspan><tspan class="cls-40" x="98.8" y="18.77">T</tspan><tspan x="106.15" y="18.77">O</tspan></text><text class="cls-26" transform="translate(847.57 1035.09)"><tspan class="cls-41">P</tspan><tspan class="cls-42" x="7.01" y="0">A</tspan><tspan class="cls-43" x="16.58" y="0">R</tspan><tspan class="cls-44" x="25.08" y="0">Â</tspan><tspan class="cls-35" x="34.59" y="0">M</tspan><tspan class="cls-45" x="47.16" y="0">E</tspan><tspan x="55.11" y="0">T</tspan><tspan class="cls-46" x="62.88" y="0">R</tspan><tspan x="71.35" y="0">O </tspan><tspan x="-11.05" y="18.77">DES</tspan><tspan class="cls-30" x="14.77" y="18.77">C</tspan><tspan x="23.52" y="18.77">ONHECIDO</tspan></text><text class="cls-47" transform="translate(290.89 1074.69)"><tspan class="cls-48">7</tspan><tspan x="10.52" y="0">0 M</tspan><tspan class="cls-49" x="44.1" y="0">P</tspan><tspan x="56.74" y="0">a</tspan></text><text class="cls-47" transform="translate(90.89 1074.69)">40 M<tspan class="cls-49" x="45.66" y="0">P</tspan><tspan x="58.3" y="0">a</tspan></text><path class="cls-50" d="M823.5,556.5s9,15,0,28c10-8,33-15,33-15S828.5,561.5,823.5,556.5Z"/><path class="cls-50" d="M524,242s15-9,28,0c-8-10-15-33-15-33S529,237,524,242Z"/><text class="cls-51" transform="translate(838.39 607.87)">σ</text><text class="cls-51" transform="translate(494.4 237.87)">τ</text><rect class="cls-52" x="794.5" y="1015.5" width="33" height="33" rx="5.98"/><text class="cls-53" transform="translate(801.63 1040.69)">X</text><rect class="cls-54" x="409.5" y="1015.5" width="170" height="53" rx="9"/><text class="cls-26" transform="translate(462.57 1035.09)"><tspan class="cls-41">P</tspan><tspan class="cls-42" x="7.01" y="0">A</tspan><tspan class="cls-43" x="16.58" y="0">R</tspan><tspan class="cls-44" x="25.08" y="0">Â</tspan><tspan class="cls-35" x="34.59" y="0">M</tspan><tspan class="cls-45" x="47.16" y="0">E</tspan><tspan x="55.11" y="0">T</tspan><tspan class="cls-46" x="62.88" y="0">R</tspan><tspan x="71.35" y="0">O </tspan><tspan x="-11.05" y="18.77">DES</tspan><tspan class="cls-30" x="14.77" y="18.77">C</tspan><tspan x="23.52" y="18.77">ONHECIDO</tspan></text><rect class="cls-55" x="409.5" y="1015.5" width="33" height="33" rx="5.98"/><rect class="cls-4" x="78.5" y="195.5" width="199" height="33" rx="5.98"/><rect class="cls-3" x="78.5" y="246.5" width="199" height="33" rx="5.98"/><rect class="cls-56" x="773" y="774" width="189" height="147" rx="12"/><text class="cls-57" transform="translate(136.44 218.33)">CIR<tspan class="cls-58" x="31.48" y="0">C</tspan><tspan x="44.22" y="0">U</tspan><tspan class="cls-59" x="58.04" y="0">L</tspan><tspan x="68.41" y="0">O</tspan></text><text class="cls-57" transform="translate(103.44 268.33)">R<tspan class="cls-60" x="12.88" y="0">E</tspan><tspan x="24.61" y="0">GI</tspan><tspan class="cls-61" x="43.87" y="0">Ã</tspan><tspan x="57.13" y="0">O S</tspan><tspan class="cls-60" x="88.06" y="0">E</tspan><tspan x="99.79" y="0">GURA</tspan></text><text class="cls-57" transform="translate(95.67 177.67)">RE<tspan class="cls-62" x="24.65" y="0">P</tspan><tspan x="37.3" y="0">RESEN</tspan><tspan class="cls-63" x="99.05" y="0">T</tspan><tspan class="cls-61" x="109.27" y="0">A</tspan><tspan class="cls-64" x="122.53" y="0">Ç</tspan><tspan x="135.11" y="0">ÕE</tspan><tspan class="cls-65" x="161.67" y="0">S</tspan><tspan x="172.76" y="0">:</tspan></text><circle class="cls-66" cx="478.16" cy="571.66" r="252.84"/><circle class="cls-67" cx="382.66" cy="570.66" r="157.34"/><circle class="cls-67" cx="635.33" cy="574.54" r="95.33"/><circle class="cls-68" cx="600.98" cy="573.76" r="178.02"/><circle class="cls-69" cx="756.45" cy="487.51" r="8.53"/><circle class="cls-70" cx="437.84" cy="645.22" r="8.53"/><line class="cls-71" x1="162.5" y1="570.5" x2="828.5" y2="570.5"/><line class="cls-71" x1="537.5" y1="904" x2="537.5" y2="238"/><text class="cls-72" transform="translate(825.34 853.87)"><tspan class="cls-73">F</tspan><tspan x="18.07" y="0">al</tspan><tspan class="cls-74" x="47.3" y="0">h</tspan><tspan x="67.59" y="0">a</tspan></text><text class="cls-47" transform="translate(134.89 542.69)"><tspan class="cls-61">-</tspan><tspan class="cls-75" x="6.59" y="0">7</tspan><tspan class="cls-76" x="17.11" y="0">0 M</tspan><tspan class="cls-49" x="50.69" y="0">P</tspan><tspan x="63.33" y="0">a</tspan></text><text class="cls-47" transform="translate(788.89 549.69)">40 M<tspan class="cls-49" x="45.66" y="0">P</tspan><tspan x="58.3" y="0">a</tspan></text></g></g></svg>